#!OML:ASF F:\VICON\USERDATA\INSTALL\rory3\rory3.ASF
:FULLY-SPECIFIED
:DEGREES
379
root -1.9662 18.4553 3.92165 -1.48146 18.1284 0.550444
lowerback 7.25738 1.91363 -2.01422
upperback 0.952943 2.35296 -1.2078
thorax -3.11181 1.18971 -0.347932
lowerneck -8.00519 -11.3343 -10.6488
upperneck 16.7917 -15.6662 9.16331
head 8.08002 -7.42441 3.07993
rclavicle -1.55549e-014 7.95139e-016
rhumerus 8.75216 47.7586 -84.2022
rradius 77.9631
rwrist 7.64895
rhand -24.2624 11.8274
rfingers 7.12502
rthumb 2.22394 -18.1407
lclavicle -1.55549e-014 7.95139e-016
lhumerus -28.6948 18.4896 56.6487
lradius 39.7648
lwrist 27.5891
lhand -22.8491 26.58
lfingers 7.12502
lthumb 3.58884 56.5295
rfemur -15.771 19.544 16.2325
rtibia 31.8876
rfoot -14.6094 -2.39849
rtoes 3.7421
lfemur -12.0347 6.87872 -13.7387
ltibia 51.9224
lfoot -13.0872 12.0335
ltoes -1.88031
380
root -1.9647 18.4568 3.93436 -1.50794 17.285 0.626165
lowerback 7.37932 1.91864 -1.97996
upperback 0.986928 2.35917 -1.20694
thorax -3.14343 1.19227 -0.370504
lowerneck -7.54205 -11.5504 -10.9181
upperneck 16.4459 -15.9963 9.44024
head 7.96588 -7.59735 3.19361
rclavicle 1.2921e-014 0
rhumerus 10.0584 51.1183 -83.104
rradius 78.4715
rwrist 9.59089
rhand -24.1203 12.2525
rfingers 7.12502
rthumb 2.36116 -17.7141
lclavicle 1.2921e-014 0
lhumerus -28.7469 17.8313 56.8289
lradius 40.8248
lwrist 27.6722
lhand -23.3192 26.4617
lfingers 7.12502
lthumb 3.13484 56.4184
rfemur -15.784 19.8923 16.1656
rtibia 31.8148
rfoot -14.4895 -1.86026
rtoes 4.11873
lfemur -12.4001 6.82676 -13.7593
ltibia 52.4551
lfoot -13.0233 11.3262
ltoes -3.73834
381
root -1.96198 18.4593 3.94735 -1.50788 16.2852 0.62204
lowerback 7.38876 1.95387 -1.93222
upperback 1.03467 2.41051 -1.20076
thorax -3.0981 1.21681 -0.395191
lowerneck -7.19068 -11.811 -11.0775
upperneck 16.1341 -16.3896 9.67599
head 7.87882 -7.79333 3.2626
rclavicle 1.44864e-014 -1.15295e-014
rhumerus 11.4715 54.3481 -81.9283
rradius 78.9478
rwrist 11.4042
rhand -24.2074 11.951
rfingers 7.12502
rthumb 2.27704 -18.0166
lclavicle 1.44864e-014 -1.15295e-014
lhumerus -28.6287 17.7409 56.8969
lradius 41.5502
lwrist 26.8825
lhand -23.5827 26.4268
lfingers 7.12502
lthumb 2.88036 56.3871
rfemur -15.9071 20.4686 16.158
rtibia 31.7678
rfoot -14.3289 -1.47067
rtoes 4.45725
lfemur -12.6912 6.84789 -13.6885
ltibia 52.7611
lfoot -13.0307 10.4991
ltoes -5.01837
382
root -1.95235 18.4601 3.95803 -1.42704 15.2174 0.767749
lowerback 7.39983 1.97476 -1.99799
upperback 1.08742 2.43238 -1.23767
thorax -3.05104 1.22778 -0.397805
lowerneck -7.087 -12.1364 -11.27
upperneck 15.9362 -16.8547 9.89917
head 7.88491 -8.01546 3.30517
rclavicle -2.1916e-014 3.97569e-016
rhumerus 13.1274 57.454 -80.5252
rradius 79.3235
rwrist 12.9543
rhand -24.6463 11.2236
rfingers 7.12502
rthumb 1.85319 -18.7481
lclavicle -2.1916e-014 3.97569e-016
lhumerus -28.5788 17.7487 56.9505
lradius 42.3105
lwrist 26.0727
lhand -23.5307 26.3177
lfingers 7.12502
lthumb 2.93062 56.2773
rfemur -16.1115 20.9128 15.9462
rtibia 31.7279
rfoot -14.1605 -0.861386
rtoes 4.5827
lfemur -12.9417 6.79569 -13.8285
ltibia 52.8529
lfoot -12.9931 9.57686
ltoes -3.97736
383
root -1.94038 18.4577 3.96589 -1.33136 14.2313 0.986519
lowerback 7.40249 1.96251 -2.14759
upperback 1.19305 2.40571 -1.25434
thorax -2.94847 1.21506 -0.326221
lowerneck -6.95039 -12.5252 -11.5827
upperneck 15.5775 -17.3776 10.1163
head 7.85151 -8.27644 3.35753
rclavicle -1.63003e-014 -3.97569e-015
rhumerus 15.0841 60.2838 -78.7808
rradius 79.5707
rwrist 14.379
rhand -24.8032 10.9963
rfingers 7.12502
rthumb 1.70167 -18.9767
lclavicle -1.63003e-014 -3.97569e-015
lhumerus -28.544 17.5705 57.2222
lradius 43.274
lwrist 26.0412
lhand -23.8731 26.4541
lfingers 7.12502
lthumb 2.59991 56.418
rfemur -16.321 21.211 15.64
rtibia 31.7005
rfoot -13.9949 -0.0730922
rtoes 5.15334
lfemur -13.182 6.58001 -14.0921
ltibia 52.7415
lfoot -13.1279 8.77066
ltoes -3.02433
